<svg xmlns="http://www.w3.org/2000/svg" xmlns:xlink="http://www.w3.org/1999/xlink" width="1080" zoomAndPan="magnify" viewBox="0 0 810 809.999993" height="1080" preserveAspectRatio="xMidYMid meet" version="1.0"><defs><clipPath id="1b8bf01754"><path d="M 98 57.75 L 712 57.75 L 712 752.25 L 98 752.25 Z M 98 57.75 " clip-rule="nonzero"/></clipPath></defs><rect x="-81" width="972" fill="#ffffff" y="-80.999999" height="971.999992" fill-opacity="1"/><rect x="-81" width="972" fill="#fefefe" y="-80.999999" height="971.999992" fill-opacity="1"/><g clip-path="url(#1b8bf01754)"><path fill="#1a1a1a" d="M 132.789062 188.664062 L 101.207031 226.597656 C 97.203125 231.414062 97.746094 238.539062 102.445312 242.679688 L 194.523438 323.816406 L 172.382812 361.371094 C 168.332031 368.359375 166.203125 376.25 166.203125 384.175781 L 166.203125 689.59375 C 166.203125 724.050781 194.28125 752.070312 228.792969 752.070312 L 581.3125 752.070312 C 615.765625 752.070312 643.789062 724.039062 643.789062 689.59375 L 643.789062 384.175781 C 643.789062 376.25 641.648438 368.371094 637.5625 361.300781 L 615.523438 323.851562 L 707.546875 242.667969 C 712.242188 238.527344 712.789062 231.402344 708.785156 226.589844 L 677.199219 188.652344 C 673.199219 183.839844 666.082031 183.085938 661.164062 186.953125 L 574.8125 254.703125 L 557.699219 225.628906 L 557.699219 154.164062 L 585.234375 154.164062 C 591.621094 154.164062 596.804688 148.992188 596.804688 142.59375 L 596.804688 69.488281 C 596.804688 63.089844 591.621094 57.917969 585.234375 57.917969 L 224.847656 57.917969 C 218.460938 57.917969 213.277344 63.089844 213.277344 69.488281 L 213.277344 142.605469 C 213.277344 149.003906 218.460938 154.175781 224.847656 154.175781 L 252.382812 154.175781 L 252.382812 225.640625 L 235.214844 254.769531 L 148.8125 186.953125 C 143.898438 183.085938 136.78125 183.839844 132.777344 188.652344 Z M 666.613281 212.101562 L 683.816406 232.753906 L 603.609375 303.511719 L 586.703125 274.808594 Z M 236.429688 81.054688 L 573.675781 81.054688 L 573.675781 131.035156 L 236.429688 131.035156 Z M 273.9375 234.652344 C 274.980469 232.882812 275.535156 230.855469 275.535156 228.785156 L 275.535156 154.175781 L 534.574219 154.175781 L 534.574219 228.785156 C 534.574219 230.855469 535.128906 232.882812 536.179688 234.664062 L 617.582031 372.964844 C 619.621094 376.492188 620.660156 380.265625 620.660156 384.175781 L 620.660156 689.59375 C 620.660156 711.289062 603.015625 728.929688 581.324219 728.929688 L 228.804688 728.929688 C 207.054688 728.929688 189.351562 711.289062 189.351562 689.59375 L 189.351562 384.175781 C 189.351562 380.265625 190.382812 376.492188 192.375 373.046875 L 219.285156 327.402344 C 219.285156 327.402344 219.316406 327.367188 219.339844 327.347656 L 248.496094 277.933594 C 248.542969 277.863281 248.542969 277.769531 248.578125 277.703125 L 273.949219 234.652344 Z M 206.488281 303.523438 L 126.183594 232.753906 L 143.386719 212.101562 L 223.378906 274.890625 L 206.5 303.523438 Z M 206.488281 303.523438 " fill-opacity="1" fill-rule="nonzero"/></g></svg>